<?xml version="1.0" standalone="no"?>
<!DOCTYPE svg PUBLIC "-//W3C//DTD SVG 20010904//EN"
 "http://www.w3.org/TR/2001/REC-SVG-20010904/DTD/svg10.dtd">
<svg version="1.0" xmlns="http://www.w3.org/2000/svg"
 width="175.000000pt" height="70.000000pt" viewBox="0 0 175.000000 70.000000"
 preserveAspectRatio="xMidYMid meet">

<g transform="translate(0.000000,70.000000) scale(0.100000,-0.100000)"
fill="#000000" stroke="none">
<path d="M279 557 c-88 -25 -136 -81 -147 -173 -13 -116 74 -190 197 -169 61
10 72 24 91 113 l18 82 -74 0 c-57 0 -74 -3 -74 -14 0 -8 -3 -21 -6 -30 -5
-13 1 -16 31 -16 36 0 36 0 30 -33 -10 -44 -13 -47 -41 -47 -58 0 -93 37 -94
98 0 50 21 97 51 113 52 27 78 29 158 8 9 -3 17 7 21 28 7 29 5 33 -19 37 -69
14 -100 14 -142 3z"/>
<path d="M1380 536 c0 -19 3 -41 6 -50 9 -23 44 -20 44 3 0 10 3 33 6 50 6 29
5 31 -25 31 -29 0 -31 -3 -31 -34z"/>
<path d="M577 456 c-52 -19 -73 -40 -93 -92 -41 -107 32 -195 110 -133 21 17
26 18 26 5 0 -12 10 -16 40 -16 38 0 40 1 40 33 0 17 9 69 19 115 10 45 16 84
12 86 -21 13 -120 14 -154 2z m75 -42 c10 -9 -20 -105 -38 -125 -25 -28 -62
-25 -70 5 -8 34 13 93 39 111 21 15 59 20 69 9z"/>
<path d="M875 463 c-33 -9 -74 -43 -90 -73 -22 -42 -19 -112 5 -143 40 -50
162 -45 172 7 4 22 3 23 -19 15 -34 -13 -77 -11 -91 3 -22 22 -13 37 26 43 95
16 122 36 122 88 0 44 -66 76 -125 60z m53 -70 c3 -18 -4 -24 -35 -32 -50 -14
-63 0 -29 34 31 30 60 30 64 -2z"/>
<path d="M1139 461 c-74 -24 -112 -83 -107 -166 2 -38 8 -52 30 -68 31 -23 67
-18 98 15 l20 22 0 -22 c0 -18 6 -22 33 -22 l33 0 23 116 c12 64 21 117 19
119 -9 8 -127 13 -149 6z m66 -78 c-3 -21 -14 -54 -23 -73 -14 -28 -23 -35
-47 -35 -29 0 -30 1 -29 49 0 40 5 53 28 72 15 13 39 24 53 24 24 0 25 -2 18
-37z"/>
<path d="M1525 460 c-38 -12 -55 -35 -55 -77 0 -27 7 -37 41 -58 58 -37 50
-61 -19 -58 -49 2 -52 1 -52 -22 0 -20 6 -25 35 -31 79 -15 145 20 145 76 0
29 -10 42 -59 79 -17 12 -22 23 -18 36 6 14 15 16 46 11 34 -5 39 -3 44 16 4
12 5 23 4 25 -9 8 -87 11 -112 3z"/>
</g>
</svg>
